<svg id="Layer_1" enable-background="new 0 0 256 256" height="512" viewBox="0 0 256 256" width="512" xmlns="http://www.w3.org/2000/svg"><g><path d="m31.016 13.898v228.204c0 3.957 3.208 7.164 7.164 7.164h167.541c3.957 0 7.164-3.208 7.164-7.164v-228.204c0-3.957-3.208-7.164-7.164-7.164h-167.541c-3.957 0-7.164 3.208-7.164 7.164z" fill="#f2e1d6"/><path d="m147.733 109.831c-4.074 1.124-7.408 3.84-9.533 7.124h-13.83c1.568-10.193 12.225-16.957 19.345-12.5 1.959 1.236 3.317 3.139 4.018 5.376z" fill="#f0c020"/><path d="m170.651 157.196-4.489 13.6c-1.506 4.56-5.767 7.641-10.569 7.641h-67.288c-4.803 0-9.064-3.08-10.569-7.641l-4.489-13.6z" fill="#13bf6d"/><path d="m160.856 157.196h-79.651c-.712-21.115 15.238-40.241 40.616-40.241h2.549 13.83c-3.206 4.942-3.668 11.164.195 15.026 5.176 5.176 15.015 2.727 19.98-4.675 8.7 11.497 4.49 22.261 2.481 29.89z" fill="#f0c020"/><path d="m90.396 150.713c-1.339-.338-2.15-1.697-1.812-3.036.177-.7.379-1.401.602-2.084.427-1.313 1.838-2.03 3.151-1.603 1.313.428 2.03 1.839 1.603 3.151-.188.576-.358 1.168-.508 1.759-.338 1.339-1.696 2.152-3.036 1.813zm4.279-11.166c-1.092-.844-1.293-2.415-.449-3.507 6.321-8.178 16.121-12.682 27.593-12.682 1.381 0 2.5 1.119 2.5 2.5s-1.119 2.5-2.5 2.5c-9.889 0-18.283 3.814-23.637 10.74-.844 1.091-2.413 1.294-3.507.449z" fill="#f9e5af"/><path d="m158.285 112.091c-2.638-2.638-6.612-3.339-10.552-2.26-4.074 1.124-7.408 3.84-9.533 7.124-3.206 4.942-3.668 11.164.195 15.026 5.176 5.176 15.015 2.727 19.98-4.675 3.494-5.198 3.605-11.52-.09-15.215z" fill="#f0c020"/><path d="m167.042 28.146h-89.245c-2.234 0-4.046 1.811-4.046 4.046v34.08c0 2.234 1.811 4.046 4.046 4.046h39.409l5.213 9.656 5.213-9.656h39.409c2.234 0 4.046-1.811 4.046-4.046v-34.08c0-2.234-1.811-4.046-4.045-4.046z" fill="#72c1e8"/><path d="m95.164 41.219 2.472 3.591 4.25 1.288c1.182.358 1.631 1.796.863 2.763l-2.694 3.392.149 4.461c.042 1.248-1.2 2.137-2.368 1.695l-4.112-1.556-4.114 1.557c-1.168.442-2.41-.447-2.368-1.695l.149-4.461-2.694-3.392c-.768-.967-.32-2.405.863-2.763l4.25-1.288 2.472-3.591c.694-1.011 2.187-1.011 2.882-.001z" fill="#f0c020"/><path d="m123.861 41.219 2.472 3.591 4.25 1.288c1.182.358 1.631 1.796.863 2.763l-2.694 3.392.149 4.461c.042 1.248-1.2 2.137-2.368 1.695l-4.112-1.556-4.112 1.556c-1.168.442-2.41-.447-2.368-1.695l.149-4.461-2.694-3.392c-.768-.967-.32-2.405.863-2.763l4.25-1.288 2.472-3.591c.692-1.01 2.184-1.01 2.88 0z" fill="#7c7b7a"/><path d="m152.557 41.219 2.472 3.591 4.25 1.288c1.182.358 1.631 1.796.863 2.763l-2.694 3.392.149 4.461c.042 1.248-1.2 2.137-2.368 1.695l-4.112-1.556-4.112 1.556c-1.168.442-2.41-.447-2.368-1.695l.149-4.461-2.694-3.392c-.768-.967-.32-2.405.863-2.763l4.25-1.288 2.472-3.591c.692-1.01 2.185-1.01 2.88 0z" fill="#7c7b7a"/><path d="m200.126 239.766h-132.662c-1.381 0-2.5-1.119-2.5-2.5s1.119-2.5 2.5-2.5h130.162v-210.838c0-1.381 1.119-2.5 2.5-2.5s2.5 1.119 2.5 2.5v213.338c0 1.381-1.119 2.5-2.5 2.5zm-142.662 0h-11.947c-1.381 0-2.5-1.119-2.5-2.5s1.119-2.5 2.5-2.5h11.948c1.381 0 2.5 1.119 2.5 2.5s-1.12 2.5-2.501 2.5z" fill="#fff"/><path d="m212.886 17.48v43.547h23.145v-25.362z" fill="#13bf6d"/><path d="m212.886 61.027v43.548h23.145v-25.363z" fill="#72c1e8"/><path d="m212.886 104.575v43.547h23.145v-25.363z" fill="#f0c020"/><path d="m212.886 148.122v43.547h23.145v-25.363z" fill="#fc5d3d"/><path d="m212.886 191.669v43.547h23.145v-25.363z" fill="#4c4945"/><path d="m66.634 159.694h4.801l3.924 11.886c1.85 5.6 7.05 9.36 12.95 9.36h45.54c1.38 0 2.5-1.12 2.5-2.5s-1.12-2.5-2.5-2.5h-45.539c-3.74 0-7.03-2.38-8.2-5.93l-3.4-10.31h90.48l-3.4 10.31c-1.17 3.55-4.46 5.93-8.2 5.93h-1.74c-1.38 0-2.5 1.12-2.5 2.5s1.12 2.5 2.5 2.5h1.74c5.9 0 11.1-3.76 12.95-9.36l3.924-11.886h4.803c1.381 0 2.5-1.119 2.5-2.5s-1.119-2.5-2.5-2.5h-13.131c2.253-8.103 4.043-17.44-2.782-27.496 2.811-5.117 2.887-10.782.267-14.907l9.026-9.026.686.686c.976.977 2.56.977 3.535 0 .977-.976.977-2.559 0-3.535l-4.907-4.907c-.976-.977-2.56-.977-3.535 0-.977.976-.977 2.559 0 3.535l.686.686-9.023 9.023c-2.488-1.575-5.584-2.195-8.829-1.77-.594-1.158-1.354-2.185-2.251-3.072l6.775-10.828.822.514c1.172.734 2.714.376 3.445-.793.732-1.17.377-2.713-.793-3.445l-5.883-3.681c-1.171-.733-2.713-.376-3.445.793-.732 1.17-.377 2.713.793 3.445l.822.515-6.778 10.833c-8.171-2.892-17.78 3.639-20.407 13.185-5.001 0-9.775.523-14.9 2.14-1.301.407-2.06 1.798-1.64 3.14.41 1.29 1.84 2.04 3.14 1.63 4.02-1.26 8.34-1.9 12.86-1.9h12.34c-1.842 5.004-1.283 10.539 2.468 14.289 5.845 5.847 15.667 3.818 21.545-2.245 4.432 7.616 3.263 14.695.778 23.186h-75.251c.27-8.84 3.67-17.19 9.57-23.53.976-1.04.857-2.632-.12-3.53-.97-.91-2.63-.85-3.54.12-6.796 7.297-10.635 16.826-10.904 26.944h-12.072c-1.381 0-2.5 1.119-2.5 2.5s1.119 2.501 2.5 2.501zm89.883-45.836c2.776 2.776 2.687 7.728-.215 12.049-.001.001-.001.001-.002.002-.005.008-.011.015-.016.023-3.985 5.922-12.121 8.384-16.169 4.227-3.839-3.919-1.606-10.623 2.334-14.439 4.564-4.42 10.85-5.078 14.068-1.862zm-14.136-7.288c.757.478 1.406 1.104 1.928 1.857-2.93 1.342-5.513 3.488-7.409 6.022h-9.298c2.571-6.8 9.938-10.91 14.779-7.879z"/><circle cx="143.85" cy="178.44" r="2.5"/><path d="m97.82 121c-1.182.747-1.517 2.282-.8 3.45.768 1.219 2.334 1.509 3.44.8 1.223-.774 1.515-2.316.8-3.45-.708-1.123-2.18-1.557-3.44-.8z"/><path d="m94.301 197.932h-21.625c-1.381 0-2.5 1.119-2.5 2.5s1.119 2.5 2.5 2.5h21.625c1.381 0 2.5-1.119 2.5-2.5s-1.119-2.5-2.5-2.5z"/><path d="m94.301 211.643h-21.625c-1.381 0-2.5 1.119-2.5 2.5s1.119 2.5 2.5 2.5h21.625c1.381 0 2.5-1.119 2.5-2.5s-1.119-2.5-2.5-2.5z"/><path d="m94.301 225.354h-21.625c-1.381 0-2.5 1.119-2.5 2.5s1.119 2.5 2.5 2.5h21.625c1.381 0 2.5-1.119 2.5-2.5s-1.119-2.5-2.5-2.5z"/><path d="m171.226 197.932h-61.922c-1.381 0-2.5 1.119-2.5 2.5s1.119 2.5 2.5 2.5h61.922c1.381 0 2.5-1.119 2.5-2.5s-1.119-2.5-2.5-2.5z"/><path d="m171.226 211.643h-61.922c-1.381 0-2.5 1.119-2.5 2.5s1.119 2.5 2.5 2.5h61.922c1.381 0 2.5-1.119 2.5-2.5s-1.119-2.5-2.5-2.5z"/><path d="m171.226 225.354h-61.922c-1.381 0-2.5 1.119-2.5 2.5s1.119 2.5 2.5 2.5h61.922c1.381 0 2.5-1.119 2.5-2.5s-1.119-2.5-2.5-2.5z"/><path d="m102.61 43.71-3.41-1.04-1.98-2.87c-1.63-2.392-5.264-2.514-7 0l-1.97 2.87-3.42 1.04c-2.864.864-3.968 4.362-2.09 6.71l2.12 2.67-.11 3.48c-.31 2.719 2.68 5.325 5.74 4.18l3.23-1.22 3.23 1.22c2.793 1.024 5.738-.958 5.75-3.98l-.12-3.68 2.13-2.67c1.88-2.424.727-5.857-2.1-6.71zm-4.51 6.99c-.37.46-.56 1.05-.54 1.64l.11 3.33-3.06-1.15c-.57-.22-1.2-.22-1.77 0l-3.06 1.15.11-3.33c.02-.61-.17-1.17-.54-1.64l-2.01-2.53 3.2-.97c.53-.16 1.01-.51 1.33-.97l1.85-2.7 1.86 2.7c.32.46.79.81 1.33.97l3.19.97z"/><path d="m131.31 43.71-3.41-1.04-1.98-2.86v-.01c-1.748-2.531-5.382-2.374-7 0l-1.98 2.87-3.41 1.04c-2.863.864-3.97 4.36-2.09 6.71l2.12 2.67c-.011.311-.12 3.38-.12 3.69.012 2.908 2.934 5.024 5.75 3.97l3.23-1.22 3.23 1.22c2.799 1.048 5.725-1.043 5.75-3.98l-.12-3.68 2.12-2.67c1.886-2.39.757-5.851-2.09-6.71zm-4.52 6.99c-.37.46-.56 1.04-.54 1.64l.11 3.33-3.06-1.15c-.573-.226-1.173-.227-1.77 0l-3.06 1.15.12-3.33c.02-.6-.17-1.17-.55-1.64l-2-2.53 3.19-.97c.54-.16 1.02-.51 1.34-.97l1.85-2.7 1.85 2.7c.32.46.8.81 1.34.97l3.19.97z"/><path d="m160 43.71-3.41-1.04-1.97-2.87-.01-.01c-1.685-2.441-5.308-2.442-7 .01l-1.97 2.87-3.41 1.04c-2.911.878-3.943 4.406-2.1 6.71l2.12 2.67c-.119 3.787-.12 3.66-.12 3.66 0 2.968 2.994 5.053 5.75 4l3.24-1.22 3.22 1.22c2.865 1.051 5.735-1.091 5.76-3.97l-.12-3.69 2.12-2.67c1.872-2.372.76-5.847-2.1-6.71zm-4.51 6.99c-.37.46-.56 1.06-.54 1.64l.11 3.33-3.06-1.15c-.584-.23-1.204-.223-1.77 0l-3.06 1.15.11-3.33c.02-.61-.17-1.17-.54-1.64l-2.01-2.53 3.2-.97c.54-.16 1.01-.51 1.33-.97l1.86-2.7 1.85 2.7c.32.46.79.81 1.33.97l3.2.97z"/><path d="m77.8 72.82h37.91l4.51 8.34c.948 1.745 3.452 1.745 4.4 0l4.5-8.34h37.92c3.61 0 6.54-2.94 6.55-6.55v-7.14c0-1.38-1.12-2.5-2.5-2.5s-2.5 1.12-2.5 2.5v7.14c0 .85-.7 1.55-1.55 1.55h-39.41c-.92 0-1.76.5-2.2 1.31l-3.01 5.58-3.01-5.58c-.44-.81-1.28-1.31-2.2-1.31h-39.41c-.86 0-1.55-.7-1.55-1.55v-34.08c0-.85.69-1.54 1.55-1.54h89.24c.85 0 1.55.69 1.55 1.54v6.94c0 1.38 1.12 2.5 2.5 2.5s2.5-1.12 2.5-2.5v-6.94c-.01-3.61-2.94-6.54-6.55-6.54h-89.24c-3.61 0-6.55 2.93-6.55 6.54v34.08c0 3.61 2.94 6.55 6.55 6.55z"/><circle cx="171.09" cy="49.13" r="2.5"/><path d="m19.969 216.591c-1.381 0-2.5 1.119-2.5 2.5s1.119 2.5 2.5 2.5h8.547v20.51c0 5.329 4.335 9.665 9.664 9.665h167.542c5.329 0 9.664-4.335 9.664-9.665v-4.386h20.646c1.381 0 2.5-1.119 2.5-2.5v-25.363c0-.767-.352-1.492-.956-1.966l-17.461-13.718h15.917c1.381 0 2.5-1.119 2.5-2.5v-25.363c0-.767-.352-1.492-.956-1.966l-17.461-13.718h15.917c1.381 0 2.5-1.119 2.5-2.5v-25.363c0-.767-.352-1.492-.956-1.966l-17.461-13.718h15.917c1.381 0 2.5-1.119 2.5-2.5v-25.363c0-.767-.352-1.492-.956-1.966l-17.461-13.718h15.917c1.381 0 2.5-1.119 2.5-2.5v-25.362c0-.767-.352-1.492-.956-1.966l-22.19-17.433v-2.367c0-5.329-4.335-9.665-9.664-9.665h-167.542c-5.329 0-9.664 4.335-9.664 9.665v20.51h-8.547c-1.381 0-2.5 1.119-2.5 2.5s1.119 2.5 2.5 2.5h8.547v31.437h-8.547c-1.381 0-2.5 1.119-2.5 2.5s1.119 2.5 2.5 2.5h8.547v31.437h-8.547c-1.381 0-2.5 1.119-2.5 2.5s1.119 2.5 2.5 2.5h8.547v31.437h-8.547c-1.381 0-2.5 1.119-2.5 2.5s1.119 2.5 2.5 2.5h8.547v31.437h-8.547c-1.381 0-2.5 1.119-2.5 2.5s1.119 2.5 2.5 2.5h8.547v31.437h-8.547zm213.562 16.125h-18.146v-35.903l18.146 14.256zm0-43.547h-18.146v-35.904l18.146 14.256zm0-43.547h-18.146v-35.903l18.146 14.256zm0-43.547h-18.146v-35.904l18.146 14.256zm0-65.195v21.647h-18.146v-35.903zm-200.015 148.275h8.205c1.381 0 2.5-1.119 2.5-2.5s-1.119-2.5-2.5-2.5h-8.205v-31.437h8.205c1.381 0 2.5-1.119 2.5-2.5s-1.119-2.5-2.5-2.5h-8.205v-31.437h8.205c1.381 0 2.5-1.119 2.5-2.5s-1.119-2.5-2.5-2.5h-8.205v-31.436h8.205c1.381 0 2.5-1.119 2.5-2.5s-1.119-2.5-2.5-2.5h-8.205v-31.436h8.205c1.381 0 2.5-1.119 2.5-2.5s-1.119-2.5-2.5-2.5h-8.205v-20.51c0-2.572 2.092-4.665 4.664-4.665h167.542c2.572 0 4.664 2.092 4.664 4.665v228.203c0 2.572-2.092 4.665-4.664 4.665h-167.542c-2.572 0-4.664-2.092-4.664-4.665v-20.51h8.205c1.381 0 2.5-1.119 2.5-2.5s-1.119-2.5-2.5-2.5h-8.205z"/></g></svg>